<?xml version="1.0" encoding="utf-8"?>
<!-- Generator: Adobe Illustrator 24.0.1, SVG Export Plug-In . SVG Version: 6.00 Build 0)  -->
<svg version="1.1" id="Layer_1" xmlns="http://www.w3.org/2000/svg" xmlns:xlink="http://www.w3.org/1999/xlink" x="0px" y="0px"
	 viewBox="0 0 296 164.9" style="enable-background:new 0 0 296 164.9;" xml:space="preserve">
<style type="text/css">
	.st0{fill:#FF6600;}
	.st1{font-family:'ArialRoundedMTBold';}
	.st2{font-size:150px;}
	.st3{fill:#0F4C75;}
	.st4{font-size:153.36px;}
	.st5{fill:#BBE1FA;}
</style>
<title>Asset 1</title>
<text transform="matrix(0.39 0 0 1 0 132.5)" class="st0 st1 st2">C</text>
<text transform="matrix(0.39 0 0 1 44.2725 132.5)" class="st0 st1 st2">r</text>
<text transform="matrix(0.39 0 0 1 68.9795 132.5)" class="st0 st1 st2">a</text>
<text transform="matrix(0.39 0 0 1 104.5205 132.5)" class="st3 st1 st4">i</text>
<text transform="matrix(0.39 0 0 1 120.7285 132.5)" class="st0 st1 st2">gsL</text>
<text transform="matrix(0.39 0 0 1 226.6523 132.5)" class="st3 st1 st4">i</text>
<text transform="matrix(0.3743 0 0 1 242.8574 132.5011)" class="st0 st1 st2">st</text>
<path class="st5" d="M136.9,15c0.9,3.5,1.7,9-1.2,13.4c-4.9,7.3-16.7,6.2-17.3,9.5c-0.3,1.9,3.2,5.4,22.2,11.9"/>
<path class="st5" d="M88,14.8c-0.9,3.5-1.7,9,1.2,13.4c4.9,7.3,16.7,6.2,17.3,9.5c0.3,1.9-3.2,5.4-22.2,11.9"/>
<path class="st5" d="M246.4,32.2c0.4,2.4,0.8,6.1-0.6,9c-2.4,4.9-8,4.1-8.3,6.4c-0.1,1.3,1.5,3.6,10.7,8"/>
<path class="st5" d="M223.1,30.7c-0.4,2.4-0.8,6.1,0.6,9c2.4,4.9,8,4.1,8.3,6.4c0.1,1.3-1.5,3.6-10.7,8"/>
</svg>
