<svg xmlns="http://www.w3.org/2000/svg" viewBox="0 0 296 164.85"><defs><style>.cls-1{font-size:153.36px;fill:#f60;font-family:ArialRoundedMTBold, Arial Rounded MT Bold;}.cls-2{letter-spacing:-0.02em;}.cls-3{fill:#0f4c75;}.cls-4{letter-spacing:0em;}.cls-5{fill:#bbe1fa;}</style></defs><title>Asset 1</title><g id="Layer_2" data-name="Layer 2"><g id="Layer_1-2" data-name="Layer 1"><text class="cls-1" transform="translate(0 132.5) scale(0.39 1)">C<tspan class="cls-2" x="113.52" y="0">r</tspan><tspan x="176.87" y="0">a</tspan><tspan class="cls-3" x="268" y="0">i</tspan><tspan x="309.56" y="0">gsL</tspan><tspan class="cls-3" x="581.16" y="0">i</tspan><tspan class="cls-4" x="622.71" y="0">st</tspan></text><path class="cls-5" d="M136.93,15c.92,3.55,1.72,9-1.24,13.43-4.93,7.33-16.71,6.16-17.26,9.48-.33,1.94,3.16,5.37,22.2,11.85"/><path class="cls-5" d="M88,14.82c-.92,3.55-1.72,9.05,1.24,13.43,4.93,7.33,16.71,6.16,17.26,9.48.33,1.94-3.16,5.37-22.2,11.85"/><path class="cls-5" d="M245.12,26.05c.44,2.38.83,6.08-.59,9-2.38,4.92-8,4.14-8.31,6.37-.15,1.3,1.52,3.61,10.68,8"/><path class="cls-5" d="M221.82,26.31c-.45,2.38-.83,6.08.59,9,2.37,4.92,8,4.14,8.31,6.37.15,1.3-1.53,3.61-10.68,8"/></g></g></svg>